<svg width="680" height="400" viewBox="0 0 680 400" xmlns="http://www.w3.org/2000/svg">
<rect width="680" height="400" fill="none"/>
<line x1="240" y1="80" x2="440" y2="80" stroke="#D4A574" stroke-width="0.5"/>
<line x1="260" y1="86" x2="420" y2="86" stroke="#D4A574" stroke-width="0.3"/>
<ellipse cx="340" cy="148" rx="38" ry="18" fill="none" stroke="#6B2737" stroke-width="1"/>
<ellipse cx="340" cy="148" rx="30" ry="11" fill="none" stroke="#D4A574" stroke-width="0.5"/>
<path d="M285 148 Q278 138 270 140 Q278 150 285 148Z" fill="#6B2737" opacity="0.6"/>
<path d="M280 153 Q271 146 265 150 Q273 157 280 153Z" fill="#D4A574" opacity="0.7"/>
<path d="M395 148 Q402 138 410 140 Q402 150 395 148Z" fill="#6B2737" opacity="0.6"/>
<path d="M400 153 Q409 146 415 150 Q407 157 400 153Z" fill="#D4A574" opacity="0.7"/>
<circle cx="310" cy="130" r="1.5" fill="#D4A574"/>
<circle cx="370" cy="130" r="1.5" fill="#D4A574"/>
<circle cx="320" cy="168" r="1.2" fill="#6B2737" opacity="0.5"/>
<circle cx="360" cy="168" r="1.2" fill="#6B2737" opacity="0.5"/>
<text x="340" y="215" text-anchor="middle" font-family="Georgia, 'Times New Roman', serif" font-size="38" font-weight="400" letter-spacing="8" fill="#2B2B2B">GRAZING</text>
<line x1="220" y1="228" x2="316" y2="228" stroke="#D4A574" stroke-width="0.8"/>
<polygon points="340,222 346,228 340,234 334,228" fill="#D4A574"/>
<line x1="364" y1="228" x2="460" y2="228" stroke="#D4A574" stroke-width="0.8"/>
<text x="340" y="262" text-anchor="middle" font-family="Georgia, 'Times New Roman', serif" font-size="38" font-weight="400" letter-spacing="8" fill="#6B2737">HARMONY</text>
<text x="340" y="292" text-anchor="middle" font-family="Georgia, 'Times New Roman', serif" font-size="11" font-weight="400" letter-spacing="5" fill="#D4A574">FIRST CLASS GRAZING</text>
<line x1="260" y1="314" x2="420" y2="314" stroke="#D4A574" stroke-width="0.3"/>
<line x1="240" y1="320" x2="440" y2="320" stroke="#D4A574" stroke-width="0.5"/>
</svg>